<?xml version="1.0" standalone="no"?>
<!DOCTYPE svg PUBLIC "-//W3C//DTD SVG 20010904//EN"
 "http://www.w3.org/TR/2001/REC-SVG-20010904/DTD/svg10.dtd">
<svg version="1.0" xmlns="http://www.w3.org/2000/svg"
 width="626.000000pt" height="626.000000pt" viewBox="0 0 626.000000 626.000000"
 preserveAspectRatio="xMidYMid meet">
<metadata>
Created by potrace 1.16, written by Peter Selinger 2001-2019
</metadata>
<g transform="translate(0.000000,626.000000) scale(0.100000,-0.100000)"
fill="#000000" stroke="none">
<path d="M3253 4981 c-68 -32 -114 -119 -133 -254 -15 -101 -17 -103 -103
-110 -129 -9 -227 -77 -267 -184 -27 -72 -26 -136 2 -175 l21 -30 -22 11 c-25
14 -24 16 -86 -159 -20 -58 -55 -138 -77 -178 -30 -55 -39 -82 -37 -110 2 -20
-7 -68 -19 -106 -42 -131 -24 -221 66 -317 60 -66 106 -94 167 -104 144 -23
104 -32 -177 -39 -344 -10 -809 -43 -827 -61 -25 -24 -3 -54 64 -87 54 -27 66
-38 86 -79 27 -59 50 -82 109 -107 25 -11 86 -58 137 -106 l91 -86 59 -1 c49
0 67 -6 118 -38 44 -28 59 -43 57 -57 -13 -70 -13 -86 -3 -97 16 -20 -8 -74
-36 -82 -17 -4 -36 5 -76 38 -29 23 -75 52 -104 65 -71 30 -184 45 -253 34
l-55 -10 55 -1 c112 -2 207 -49 260 -128 16 -26 30 -50 30 -53 0 -4 -66 -35
-147 -69 -132 -55 -153 -61 -194 -55 -129 18 -274 -132 -274 -283 0 -71 20
-107 76 -136 87 -46 223 32 283 163 14 30 26 69 26 87 l0 32 -89 -30 c-76 -26
-91 -34 -101 -59 -18 -44 -56 -80 -83 -80 -46 0 -58 80 -21 135 14 19 14 19
14 -2 0 -31 14 -36 43 -13 41 32 532 196 658 220 61 12 115 20 121 18 5 -2 2
-13 -9 -25 -13 -14 -39 -24 -88 -32 -38 -6 -95 -19 -125 -29 l-55 -19 -7 -75
c-16 -173 -72 -307 -177 -420 -126 -137 -270 -208 -420 -208 -117 0 -198 47
-248 144 l-16 31 41 -37 c51 -46 88 -66 142 -74 l42 -7 -36 53 c-20 28 -43 75
-51 103 -19 65 -19 186 0 260 45 175 198 348 347 392 66 19 173 19 228 0 24
-8 45 -14 46 -12 2 2 -9 24 -25 49 -83 131 -240 151 -431 57 -67 -34 -103 -60
-171 -129 -72 -72 -94 -101 -132 -180 -138 -283 -108 -580 71 -717 77 -58 143
-77 267 -77 188 2 333 64 473 204 119 118 192 244 224 381 l11 47 90 12 c79
11 94 16 125 45 l36 32 42 -19 c40 -17 55 -18 195 -8 277 18 297 30 433 257
77 129 96 171 96 211 0 51 28 65 112 57 97 -8 129 8 185 95 23 36 53 80 67 98
l25 34 6 -39 c4 -21 11 -56 15 -77 8 -37 6 -43 -26 -79 -52 -57 -124 -172
-161 -257 -51 -116 -67 -204 -60 -329 14 -250 115 -395 312 -447 69 -19 215
-17 294 2 336 84 596 417 618 794 14 256 -96 445 -296 506 -64 19 -176 26
-236 16 l-50 -10 55 -1 c169 -3 294 -85 352 -229 19 -49 22 -75 22 -182 -1
-106 -5 -138 -27 -213 -79 -259 -245 -453 -471 -551 -63 -27 -82 -30 -171 -31
-92 0 -105 3 -165 31 -36 17 -80 47 -99 65 -44 44 -85 132 -77 164 9 37 23 30
46 -22 26 -59 45 -80 92 -104 35 -18 106 -27 82 -11 -25 18 -63 82 -78 131
-42 144 5 365 105 492 16 20 29 46 29 56 0 26 -60 321 -71 351 -8 20 -14 23
-36 17 -26 -6 -27 -6 -10 13 9 10 14 21 11 25 -3 3 -30 102 -59 219 -50 196
-53 214 -38 230 17 20 40 23 62 9 11 -7 111 -391 111 -429 0 -7 -11 -17 -25
-22 -32 -12 -32 -30 -1 -30 13 0 28 -6 33 -12 13 -16 153 -647 153 -687 0 -32
-24 -48 -45 -31 -7 6 -18 40 -25 75 -7 36 -16 65 -20 65 -15 0 -40 -93 -40
-145 0 -38 6 -62 23 -86 98 -147 361 18 362 228 0 72 -20 106 -80 138 -38 20
-39 22 -57 115 -26 136 -25 141 47 167 79 29 185 30 260 4 40 -14 55 -16 55
-7 0 22 -71 96 -111 116 -60 31 -166 46 -235 33 -33 -6 -62 -8 -66 -5 -3 4
-17 62 -31 130 l-24 123 25 20 c36 28 157 84 249 115 69 23 89 26 178 22 78
-4 110 -10 148 -29 41 -20 49 -21 57 -9 20 31 8 56 -54 116 -116 114 -193 137
-463 138 l-171 1 -31 92 c-33 102 -69 163 -106 183 -14 7 -27 21 -30 30 -11
36 -114 173 -196 262 -47 51 -91 108 -97 127 -14 40 -49 89 -104 147 l-39 40
26 55 c13 30 25 65 25 78 l0 25 -27 -26 c-66 -63 -116 -58 -210 21 -59 49 -69
63 -78 103 -6 29 -21 56 -37 72 -25 23 -28 32 -28 95 0 38 4 72 8 75 4 2 75
-40 158 -94 140 -94 152 -100 201 -100 37 0 55 -5 61 -16 8 -15 10 -15 15 0 4
11 19 16 44 16 49 0 83 10 83 23 0 5 -12 25 -26 44 -14 19 -48 67 -75 108 -89
133 -173 186 -304 192 -64 3 -88 0 -122 -16z m-109 -451 c14 -22 22 -40 16
-40 -6 0 -8 -10 -5 -23 6 -20 0 -55 -21 -127 l-7 -25 25 23 c14 13 34 38 44
57 l18 34 70 -62 c107 -95 125 -107 162 -107 37 0 39 -4 21 -37 l-12 -22 -30
19 c-42 28 -65 25 -77 -8 l-11 -29 -60 19 c-46 14 -77 34 -134 84 -74 67 -107
82 -183 85 -32 1 -33 2 -10 9 14 4 49 8 77 9 69 1 88 27 88 118 0 35 1 63 1
63 1 0 13 -18 28 -40z m421 -316 c40 -48 64 -102 65 -143 0 -24 0 -24 15 -5
14 19 14 19 15 -1 0 -11 19 -45 41 -75 41 -55 64 -99 55 -107 -14 -14 -44 13
-69 61 -16 30 -62 90 -103 134 -72 78 -74 82 -74 131 0 28 4 51 9 51 5 0 26
-21 46 -46z m-506 -134 c16 0 35 13 57 39 38 43 86 66 59 28 -23 -33 -20 -119
6 -151 28 -35 14 -33 -51 9 -30 19 -63 35 -73 35 -50 0 -170 84 -218 152 -17
23 0 15 87 -42 59 -38 119 -70 133 -70z m-296 48 c-31 -76 -44 -216 -22 -235
8 -6 52 -20 99 -32 46 -12 87 -24 91 -29 5 -4 -49 -7 -119 -7 -98 -1 -136 -5
-166 -18 -22 -9 -41 -15 -44 -12 -3 3 9 22 26 44 20 25 36 62 46 103 27 116
84 247 108 248 4 0 -5 -28 -19 -62z m627 -101 c0 -20 123 -116 162 -128 18 -5
51 -9 72 -9 61 0 96 -38 96 -104 -1 -42 -5 -54 -25 -69 -24 -17 -25 -17 -31
10 -3 16 -7 33 -9 39 -2 6 -43 41 -91 77 l-88 66 -32 -19 c-44 -28 -63 -26
-36 3 31 33 29 57 -2 28 -34 -32 -52 -18 -25 19 22 29 19 50 -7 50 -8 0 -14 9
-14 21 0 11 -4 17 -10 14 -5 -3 -10 -14 -10 -24 0 -20 -37 -58 -46 -48 -4 4
-1 13 6 22 20 24 5 29 -27 9 -20 -13 -17 -7 12 19 42 38 105 52 105 24z m486
-192 c49 -65 49 -69 -1 -40 -56 33 -65 27 -65 -50 0 -72 45 -283 66 -306 15
-17 15 -19 0 -25 -9 -3 -27 -3 -40 0 -28 7 -56 71 -76 174 -7 34 -17 62 -21
62 -14 0 -10 34 6 56 8 11 14 42 15 76 0 46 4 60 21 72 16 10 19 20 14 38 -4
12 -9 31 -12 42 -5 19 40 -29 93 -99z m-323 -55 c37 -27 67 -57 67 -66 0 -27
36 -78 69 -97 18 -10 31 -26 31 -38 0 -16 -7 -19 -41 -19 -52 0 -206 -51 -287
-96 -34 -19 -64 -34 -66 -34 -3 0 -14 20 -26 45 -28 58 -104 125 -193 171
l-72 36 58 -5 c31 -3 83 -17 115 -32 l57 -26 18 23 c10 13 37 52 60 88 40 62
88 100 127 100 8 0 45 -23 83 -50z m-943 -89 c-23 -43 -32 -118 -19 -163 l12
-43 16 65 c14 57 57 138 67 128 2 -2 -3 -26 -11 -53 -30 -99 -14 -205 35 -230
l30 -16 0 53 c0 29 3 71 7 93 6 39 7 37 20 -38 14 -81 36 -137 54 -137 17 0
81 71 111 122 14 26 36 52 48 58 21 11 21 11 6 -19 -23 -43 -19 -61 5 -28 41
54 130 81 191 58 26 -10 75 -56 90 -86 10 -19 9 -19 -13 2 -40 37 -95 55 -145
47 -39 -6 -48 -12 -69 -49 -31 -53 -31 -57 3 -50 15 4 38 8 52 11 15 3 1 -9
-35 -31 -82 -50 -86 -55 -39 -56 l39 -1 -60 -28 c-71 -34 -83 -36 -81 -12 1
15 -11 18 -94 22 -52 3 -102 9 -110 15 -39 24 -124 114 -142 149 -33 65 -23
164 24 224 16 18 20 15 8 -7z m1054 -233 c-27 -18 -63 -53 -82 -78 -18 -25
-47 -50 -64 -56 -58 -21 -72 -45 -131 -232 -31 -98 -57 -188 -57 -200 0 -13
23 -37 70 -72 39 -29 67 -56 64 -61 -9 -16 -76 -10 -118 11 -61 29 -96 66 -96
100 0 19 -5 30 -14 30 -22 0 -73 -47 -108 -99 -58 -83 -126 -163 -162 -188
-38 -27 -132 -45 -125 -24 2 6 71 101 152 211 147 197 149 199 215 230 88 41
97 50 148 152 50 99 53 119 22 150 l-21 21 24 20 c60 48 232 116 298 117 l33
0 -48 -32z m885 -71 c9 -12 -12 -15 -122 -21 -158 -8 -287 -33 -387 -75 -41
-17 -75 -30 -76 -28 -1 1 -5 14 -9 28 -6 25 -3 28 47 47 55 21 178 49 238 55
19 2 94 5 166 5 100 2 134 -1 143 -11z m-1278 -155 c-58 -98 -83 -130 -112
-142 -34 -15 -76 -63 -218 -249 -55 -73 -101 -131 -101 -128 0 2 7 24 15 47
21 59 20 65 -20 109 -43 48 -46 69 -4 30 40 -38 68 -37 105 4 81 86 92 126 42
157 -56 34 -112 21 -183 -41 l-39 -34 33 48 c60 87 126 107 221 66 54 -23 83
-22 88 4 3 13 -14 26 -70 52 l-73 34 46 1 c26 0 69 -7 97 -16 28 -9 62 -14 76
-10 13 3 46 31 73 61 26 30 49 55 50 55 1 0 -10 -22 -26 -48z m525 -32 l14
-61 -42 -50 c-86 -98 -160 -247 -195 -388 -19 -77 -33 -92 -33 -36 0 86 57
276 131 434 47 100 96 177 106 168 2 -3 11 -33 19 -67z m-1026 -85 c0 -8 -4
-15 -9 -15 -20 0 -41 -33 -41 -65 0 -44 -87 -206 -144 -267 -24 -25 -46 -52
-48 -59 -3 -10 -25 -4 -84 24 -56 26 -94 37 -125 37 -37 0 -54 7 -93 36 -25
21 -44 39 -42 41 2 3 56 -9 118 -26 161 -43 181 -42 234 15 24 25 50 65 59 89
15 39 15 45 1 73 -9 17 -34 43 -56 59 -22 15 -55 38 -72 51 l-32 22 167 0
c142 0 167 -2 167 -15z m720 -448 c0 -6 -20 -23 -45 -36 -56 -30 -82 -62 -175
-216 -77 -129 -109 -168 -153 -191 -16 -9 -83 -22 -150 -30 -124 -15 -158 -24
-96 -24 24 0 46 -10 74 -34 47 -40 42 -51 -30 -61 -48 -6 -54 -4 -115 36 l-63
43 -106 -28 c-149 -40 -151 -41 -151 -24 0 9 36 32 90 57 80 37 90 44 85 64
-7 26 32 90 56 95 9 2 38 -14 64 -34 l49 -37 117 11 c67 6 131 18 148 27 30
15 63 59 174 229 61 93 108 134 174 152 26 7 49 13 51 13 1 1 2 -5 2 -12z
m-767 -138 c46 -12 65 -46 51 -87 -8 -23 -17 -28 -58 -33 -44 -5 -52 -2 -99
33 -28 21 -58 38 -67 38 -9 0 -25 9 -34 19 -17 19 -16 20 26 29 59 13 136 14
181 1z"/>
<path d="M4656 1700 c-45 -43 -48 -49 -44 -88 4 -47 -2 -50 -42 -22 l-28 20
-45 -25 c-24 -14 -76 -36 -113 -49 -38 -13 -98 -37 -134 -55 -54 -27 -61 -28
-38 -9 l27 23 -97 1 c-110 1 -189 20 -270 65 -33 19 -61 28 -73 24 -24 -8 -24
-16 2 -66 11 -23 19 -42 17 -44 -2 -2 -44 32 -93 75 -70 61 -106 85 -165 108
l-76 30 -140 -34 c-201 -48 -363 -74 -495 -81 -110 -6 -119 -4 -185 22 -40 16
-96 30 -135 33 l-65 4 -45 -65 c-24 -37 -47 -67 -51 -67 -4 0 -5 15 -1 33 l6
32 -54 -51 c-83 -78 -131 -111 -221 -154 -165 -77 -354 -90 -492 -35 l-66 26
-72 -20 c-40 -11 -74 -18 -76 -16 -1 1 27 13 63 26 l65 23 -22 23 c-17 18 -32
23 -71 23 -44 0 -72 -12 -231 -96 -100 -53 -183 -98 -185 -100 -2 -2 939 -4
2093 -4 l2096 0 -72 88 c-40 48 -106 131 -147 184 -62 81 -81 99 -125 117 -39
16 -60 34 -91 77 -21 30 -44 58 -50 62 -5 4 -32 -13 -59 -38z m-1401 -271 l80
-80 -50 19 c-27 11 -69 28 -92 37 l-41 17 -69 -42 c-80 -49 -104 -49 -233 0
-93 36 -113 54 -38 34 120 -32 243 -9 323 61 22 19 40 34 40 35 0 0 36 -36 80
-81z"/>
</g>
</svg>
